# xmcd
#
# Track frame offsets: 
#        150
#        14474
#        27910
#        42623
#        56969
#        72468
#        86318
#        102150
#        115853
#        127815
#        143108
#        155427
#        168572
#        182298
#        193826
#        206616
#        220155
#        232009
#
# Disc length: 3276 seconds
#
# Revision: 1
# Processed by: cddbd v1.5.2PL0 Copyright (c) Steve Scherf et al.
# Submitted via: ExactAudioCopyFreeDBPlugin 1.0
#
DISCID=010cca12
DTITLE=Jack Hylton and His Orchestra - Jack Hylton and His Orchestra - Lov
DTITLE=able and Sweet - 1929-1931
DYEAR=1931
DGENRE=Jazz
TTITLE0=My Blackbirds Are Bluebirds Now
TTITLE1=DeepNight
TTITLE2=Mean To Me
TTITLE3=Lovable And Sweet
TTITLE4=Ain't Misbehavin'
TTITLE5=Tip-Toe Thru The Tulips
TTITLE6=Body And Soul
TTITLE7=When You're Smiling
TTITLE8=Here Comes Emily Brown
TTITLE9=On The Sunny Side Of The Street
TTITLE10=It's A Great Life
TTITLE11=My Ideal
TTITLE12=Singing A Song To The Stars
TTITLE13=It's Not You
TTITLE14=I Haven't Heard A Single Word From Baby
TTITLE15=GotThe Bench, Got The Park
TTITLE16=When I Take My Sugar To Tea
TTITLE17=Ain't That The Way It Goes
EXTD=YEAR: 1931
EXTT0=
EXTT1=
EXTT2=
EXTT3=
EXTT4=
EXTT5=
EXTT6=
EXTT7=
EXTT8=
EXTT9=
EXTT10=
EXTT11=
EXTT12=
EXTT13=
EXTT14=
EXTT15=
EXTT16=
EXTT17=
PLAYORDER=
